<svg xmlns="http://www.w3.org/2000/svg" xmlns:xlink="http://www.w3.org/1999/xlink" width="500" zoomAndPan="magnify" viewBox="0 0 375 374.999991" height="500" preserveAspectRatio="xMidYMid meet" version="1.0"><defs><g/></defs><path fill="#319795" d="M 164.8125 245.128906 C 164.414062 240.921875 164.414062 234.542969 166.40625 228.609375 C 168.796875 221.746094 174.066406 215.808594 184.734375 215.144531 L 185 215.144531 C 194.121094 215.011719 199.257812 211.957031 202.179688 207.75 C 204.96875 203.542969 205.632812 197.960938 205.632812 193.089844 C 205.632812 191.761719 205.5 190.429688 205.367188 189.148438 C 205.367188 187.683594 205.234375 186.488281 205.101562 185.472656 L 204.96875 183.609375 C 204.835938 183.078125 204.835938 182.546875 204.835938 182.015625 C 204.703125 178.5625 206.03125 176.214844 208.023438 174.488281 C 209.882812 172.757812 212.496094 171.695312 215.019531 170.542969 C 216.613281 169.878906 218.207031 169.214844 219.226562 168.417969 C 220.15625 167.753906 220.6875 166.957031 220.554688 166.160156 L 220.554688 165.628906 C 220.554688 165.496094 220.289062 165.097656 219.890625 164.433594 C 219.226562 163.636719 218.429688 162.707031 217.5 161.507812 C 215.507812 159.117188 213.027344 156.238281 210.769531 152.386719 C 208.644531 148.578125 206.828125 143.792969 206.164062 137.859375 L 206.164062 137.636719 C 205.101562 130.90625 202.976562 124.703125 199.964844 119.035156 C 196.777344 113.101562 192.570312 107.828125 187.570312 103.445312 C 182.566406 99.105469 176.722656 95.648438 170.390625 93.257812 C 164.324219 91 157.726562 89.671875 150.863281 89.671875 C 149.535156 89.671875 148.207031 89.671875 147.191406 89.804688 C 140.0625 90.203125 133.199219 92.0625 126.867188 94.941406 C 120.535156 97.730469 114.738281 101.804688 109.820312 106.8125 C 104.820312 111.949219 100.703125 118.28125 97.824219 125.546875 C 95.167969 132.410156 93.75 140.074219 93.75 148.53125 L 93.75 150.792969 L 93.882812 152.785156 C 96.539062 160.84375 99.683594 168.640625 103.136719 176.167969 C 106.722656 183.964844 110.664062 191.226562 114.738281 197.960938 C 118.410156 204.160156 122.261719 209.699219 126.203125 214.613281 C 130.011719 219.21875 133.996094 223.339844 137.671875 226.484375 C 143.871094 231.488281 149.136719 235.605469 153.921875 238.753906 C 157.949219 241.585938 161.492188 243.667969 164.8125 245.128906 Z M 87.949219 131.570312 C 89.144531 126.566406 90.871094 121.78125 93.085938 117.308594 C 96.007812 111.371094 99.816406 106.101562 104.289062 101.453125 C 109.820312 95.78125 116.285156 91.132812 123.546875 87.988281 C 130.675781 84.664062 138.46875 82.71875 146.527344 82.1875 L 148.652344 82.050781 L 150.777344 82.050781 C 158.570312 82.050781 166.09375 83.515625 173.089844 85.996094 C 180.21875 88.785156 186.816406 92.726562 192.484375 97.730469 C 198.152344 102.601562 203.066406 108.714844 206.605469 115.449219 C 210.195312 121.914062 212.539062 129.175781 213.601562 136.839844 L 213.734375 136.972656 C 214.796875 146.496094 219.800781 152.429688 223.253906 156.503906 L 223.519531 156.769531 L 223.519531 156.902344 C 226.175781 159.960938 228.125 162.308594 228.125 165.363281 C 228.523438 169.039062 227.328125 171.5625 225.203125 173.421875 C 223.210938 175.285156 220.597656 176.480469 217.941406 177.632812 C 216.480469 178.296875 214.886719 178.960938 213.867188 179.625 C 212.9375 180.289062 212.40625 180.953125 212.40625 181.617188 C 212.40625 182.414062 212.539062 183.476562 212.671875 184.671875 L 212.671875 184.9375 C 212.9375 187.199219 213.203125 190.078125 213.203125 193.132812 C 213.203125 199.597656 212.40625 206.863281 208.464844 212.664062 C 204.527344 218.335938 197.488281 222.585938 185.222656 222.851562 C 172.824219 223.515625 171.894531 236.316406 172.292969 243.445312 C 172.425781 245.574219 172.691406 247.121094 172.824219 247.789062 C 177.828125 248.71875 182.210938 248.054688 186.683594 246.191406 C 191.421875 244.199219 196.601562 240.921875 202.800781 236.9375 L 205.457031 235.207031 L 207.582031 233.613281 C 215.640625 227.945312 227.769531 218.421875 240.210938 206.6875 C 249.597656 197.960938 258.941406 188.082031 267.132812 177.632812 C 277.3125 164.699219 285.59375 150.96875 288.78125 137.859375 C 291.4375 127.007812 290.773438 116.597656 284.839844 107.476562 L 284.042969 106.28125 C 264.386719 78.289062 247.339844 88.429688 232.816406 97.15625 C 225.691406 101.363281 218.960938 105.347656 212.628906 105.75 C 206.164062 106.28125 199.964844 103.355469 194.296875 93.613281 C 192.039062 89.671875 188.101562 83.425781 182.964844 76.695312 C 177.695312 69.960938 170.964844 62.832031 163.039062 57.160156 C 155.382812 51.625 146.660156 47.375 136.917969 46.441406 C 127.132812 45.378906 116.332031 47.507812 104.6875 54.503906 C 102.960938 55.566406 101.367188 56.894531 99.816406 58.179688 C 98.222656 59.507812 96.894531 60.96875 95.609375 62.386719 C 90.074219 69.253906 86.753906 77.976562 85.292969 88.03125 C 83.699219 99.105469 84.363281 111.816406 86.621094 124.882812 C 87.019531 126.742188 87.417969 128.558594 87.816406 130.417969 Z M 157.816406 145.566406 C 157.285156 146.363281 156.355469 147.027344 155.425781 147.292969 C 154.496094 147.425781 153.433594 147.292969 152.503906 146.761719 C 151.574219 146.230469 151.042969 145.300781 150.777344 144.371094 C 150.511719 143.4375 150.644531 142.375 151.175781 141.445312 L 151.441406 141.046875 C 151.707031 140.648438 151.839844 140.25 151.839844 139.71875 C 151.972656 139.320312 151.972656 138.789062 151.839844 138.390625 C 151.707031 137.992188 151.574219 137.59375 151.308594 137.195312 C 151.042969 136.929688 150.777344 136.664062 150.378906 136.398438 L 150.113281 136.265625 C 149.714844 136 149.183594 135.867188 148.652344 135.867188 C 148.121094 135.734375 147.457031 135.867188 146.925781 136 C 146.394531 136.132812 145.730469 136.398438 145.332031 136.796875 C 144.800781 137.195312 144.402344 137.59375 144.003906 138.125 L 143.605469 138.921875 C 142.941406 140.25 142.410156 141.710938 142.277344 142.996094 C 142.011719 144.457031 142.144531 145.785156 142.410156 147.070312 C 142.808594 148.398438 143.339844 149.59375 144.136719 150.746094 C 144.933594 151.808594 145.863281 152.738281 147.058594 153.40625 L 147.722656 153.804688 C 149.050781 154.601562 150.644531 155 152.058594 155.132812 C 153.789062 155.265625 155.382812 155.132812 156.929688 154.601562 C 158.523438 154.203125 160.117188 153.40625 161.402344 152.339844 C 162.730469 151.410156 163.925781 150.082031 164.855469 148.664062 L 165.652344 147.335938 C 166.847656 145.210938 167.511719 142.863281 167.910156 140.605469 C 168.175781 138.210938 168.042969 135.867188 167.511719 133.738281 C 166.980469 131.480469 166.050781 129.53125 164.722656 127.671875 C 163.394531 125.8125 161.800781 124.351562 159.851562 123.066406 L 158.789062 122.535156 C 156.398438 121.207031 153.921875 120.542969 151.394531 120.273438 C 148.605469 120.007812 145.996094 120.273438 143.339844 121.074219 C 140.683594 121.871094 138.203125 123.066406 135.945312 124.75 C 133.820312 126.476562 131.871094 128.425781 130.410156 130.816406 L 129.347656 132.675781 C 127.753906 135.734375 126.691406 138.878906 126.160156 142.066406 C 125.761719 145.386719 125.894531 148.664062 126.691406 151.855469 C 127.488281 154.910156 128.816406 157.789062 130.632812 160.3125 C 132.359375 162.839844 134.703125 165.054688 137.492188 166.78125 L 138.289062 167.179688 L 139.089844 167.578125 C 142.277344 169.4375 145.816406 170.367188 149.402344 170.765625 C 153.078125 171.03125 156.929688 170.632812 160.472656 169.570312 C 164.148438 168.507812 167.601562 166.78125 170.789062 164.433594 C 173.84375 162.175781 176.457031 159.429688 178.449219 155.972656 C 178.980469 155.175781 179.511719 154.378906 179.910156 153.714844 C 182.035156 149.773438 183.363281 145.652344 183.851562 141.578125 C 184.382812 137.371094 184.25 133.121094 183.1875 129.175781 C 182.257812 125.234375 180.527344 121.382812 178.183594 118.105469 C 175.792969 114.917969 172.914062 112.171875 169.328125 109.910156 L 168.265625 109.246094 L 167.335938 108.714844 C 162.996094 106.457031 158.347656 105.128906 153.476562 104.640625 C 148.605469 104.242188 143.558594 104.773438 138.6875 106.101562 C 134.085938 107.5625 129.570312 109.691406 125.761719 112.703125 C 122.175781 115.625 119.164062 119.167969 116.773438 123.417969 C 115.710938 125.546875 114.78125 127.496094 113.984375 129.488281 C 113.054688 131.613281 112.390625 133.5625 111.859375 135.554688 C 110.664062 140.027344 110.265625 144.414062 110.398438 148.488281 C 110.53125 152.5625 111.460938 156.550781 112.921875 160.09375 C 114.515625 163.769531 116.597656 167.089844 119.386719 170.144531 C 122.175781 173.070312 125.585938 175.683594 129.570312 177.808594 C 131.296875 178.738281 133.15625 179.667969 135.101562 180.332031 C 136.960938 181.128906 138.910156 181.792969 141.035156 182.324219 C 141.964844 182.59375 142.628906 183.125 143.160156 183.65625 C 143.691406 184.320312 143.957031 185.25 143.957031 186.046875 L 144.355469 195.4375 C 155.335938 191.226562 178.667969 177.320312 183.054688 168.109375 C 183.453125 167.179688 184.25 166.515625 185.179688 166.117188 C 186.109375 165.851562 187.171875 165.851562 188.234375 166.382812 C 189.164062 166.78125 189.828125 167.578125 190.226562 168.507812 C 190.492188 169.4375 190.492188 170.5 190.09375 171.429688 C 184.027344 184.230469 156.578125 199.421875 142.1875 204.425781 C 141.921875 204.425781 141.789062 204.558594 141.65625 204.558594 C 141.390625 204.558594 141.257812 204.691406 140.992188 204.691406 C 139.929688 204.691406 139 204.292969 138.203125 203.628906 C 137.539062 202.964844 137.007812 202.035156 137.007812 200.972656 L 136.476562 188.96875 C 134.75 188.4375 133.023438 187.90625 131.339844 187.242188 C 129.480469 186.445312 127.664062 185.515625 126.070312 184.71875 C 121.332031 182.058594 117.214844 178.914062 113.808594 175.328125 C 110.484375 171.742188 107.742188 167.53125 105.882812 163.058594 C 104.023438 158.71875 103.09375 153.9375 102.828125 148.929688 C 102.5625 144.058594 103.09375 138.878906 104.554688 133.738281 C 105.21875 131.347656 105.882812 129.132812 106.945312 126.742188 C 107.875 124.484375 108.9375 122.136719 110.132812 119.875 C 112.921875 114.605469 116.730469 110.222656 121.113281 106.8125 C 125.71875 103.136719 131.03125 100.476562 136.695312 98.75 C 142.363281 97.15625 148.429688 96.492188 154.40625 97.15625 C 160.207031 97.6875 165.875 99.28125 171.054688 102.027344 L 172.382812 102.691406 L 173.445312 103.355469 C 177.917969 106.148438 181.636719 109.691406 184.515625 113.675781 C 187.570312 117.75 189.648438 122.535156 190.84375 127.40625 C 192.039062 132.277344 192.304688 137.460938 191.507812 142.597656 C 190.84375 147.601562 189.25 152.652344 186.773438 157.390625 L 185.976562 158.851562 L 185.179688 160.179688 C 182.523438 164.253906 179.246094 167.84375 175.527344 170.632812 C 171.71875 173.554688 167.335938 175.769531 162.730469 177.101562 C 158.257812 178.429688 153.476562 178.960938 148.738281 178.429688 C 144.269531 178.03125 139.753906 176.703125 135.546875 174.621094 L 134.484375 173.957031 L 133.554688 173.421875 C 129.96875 171.164062 126.957031 168.285156 124.566406 164.964844 C 122.042969 161.640625 120.359375 157.832031 119.429688 153.757812 C 118.367188 149.816406 118.101562 145.566406 118.765625 141.359375 C 119.296875 137.28125 120.625 133.164062 122.707031 129.222656 L 123.371094 128.027344 L 123.902344 126.964844 C 126.027344 123.773438 128.507812 121.027344 131.429688 118.902344 C 134.351562 116.644531 137.757812 114.960938 141.347656 113.898438 C 144.933594 112.835938 148.605469 112.570312 152.191406 112.835938 C 155.78125 113.234375 159.1875 114.164062 162.507812 115.890625 C 163.039062 116.289062 163.570312 116.554688 164.101562 116.820312 C 166.890625 118.546875 169.238281 120.761719 171.097656 123.417969 C 172.957031 126.078125 174.417969 128.957031 175.039062 132.144531 C 175.835938 135.335938 176.101562 138.613281 175.570312 141.800781 C 175.171875 144.988281 174.109375 148.265625 172.515625 151.324219 L 171.984375 152.253906 L 171.453125 153.050781 C 170.125 155.308594 168.265625 157.257812 166.316406 158.71875 C 164.058594 160.3125 161.710938 161.507812 159.1875 162.308594 C 156.664062 163.105469 154.054688 163.371094 151.527344 163.105469 C 149.003906 162.839844 146.527344 162.175781 144.136719 160.84375 L 143.605469 160.578125 L 143.074219 160.179688 C 141.082031 158.984375 139.398438 157.390625 138.070312 155.574219 C 136.609375 153.582031 135.679688 151.5 135.148438 149.242188 C 134.617188 146.980469 134.484375 144.636719 134.75 142.375 C 135.015625 140.117188 135.8125 137.769531 137.007812 135.644531 C 137.007812 135.511719 137.539062 134.582031 137.671875 134.449219 C 138.46875 132.988281 139.53125 131.921875 140.859375 130.992188 C 142.054688 130.0625 143.515625 129.265625 144.933594 128.867188 C 146.394531 128.46875 147.988281 128.335938 149.535156 128.46875 C 150.996094 128.601562 152.457031 129 153.875 129.796875 C 154.007812 129.796875 154.273438 130.0625 154.539062 130.195312 C 155.734375 130.859375 156.796875 131.921875 157.59375 132.988281 C 158.390625 134.183594 159.054688 135.511719 159.320312 136.796875 C 159.71875 138.125 159.71875 139.585938 159.585938 141.003906 C 159.453125 142.332031 158.921875 143.660156 158.257812 144.945312 C 158.214844 144.902344 157.949219 145.300781 157.816406 145.566406 Z M 86.402344 154.953125 L 86.269531 154.6875 C 84.675781 149.949219 83.347656 145.167969 82.0625 140.292969 C 80.867188 135.554688 79.804688 130.90625 79.007812 126.296875 C 76.484375 112.304688 75.820312 98.574219 77.679688 86.394531 C 79.40625 75.320312 83.214844 65.398438 89.542969 57.738281 C 91.136719 55.746094 92.863281 54.0625 94.679688 52.464844 C 96.539062 50.738281 98.488281 49.277344 100.613281 48.125 C 113.984375 39.886719 126.25 37.539062 137.492188 38.691406 C 148.738281 39.84375 158.878906 44.628906 167.46875 50.960938 C 176.058594 57.160156 183.1875 64.691406 188.851562 71.820312 C 194.386719 78.953125 198.503906 85.550781 200.984375 89.671875 C 204.660156 96.136719 208.910156 98.128906 213.382812 97.597656 C 217.984375 96.933594 223.300781 93.921875 228.832031 90.601562 C 237.421875 85.464844 246.808594 79.882812 257.082031 79.75 C 267.351562 79.617188 278.464844 85.019531 290.332031 101.9375 L 291.261719 103.269531 C 298.257812 114.117188 299.320312 126.253906 296.53125 138.65625 C 293.078125 153.183594 284.265625 168.242188 273.152344 182.371094 C 264.695312 193.089844 255.042969 203.230469 245.4375 212.222656 C 232.640625 224.359375 220.199219 234.144531 211.921875 239.949219 L 209.796875 241.410156 L 206.871094 243.402344 C 181.636719 259.789062 172.824219 265.460938 132.667969 232.328125 C 128.59375 229.007812 124.34375 224.667969 120.269531 219.53125 C 116.066406 214.390625 111.949219 208.457031 108.007812 201.945312 C 103.800781 195.082031 99.683594 187.417969 96.007812 179.359375 C 92.464844 171.429688 89.144531 163.238281 86.402344 154.953125 Z M 86.402344 154.953125 " fill-opacity="1" fill-rule="nonzero"/><g fill="#319795" fill-opacity="1"><g transform="translate(53.688927, 325.204138)"><g><path d="M 5.1875 -44.625 L 5.1875 0 L 33.453125 0 L 33.453125 -8.777344 L 14.363281 -8.777344 L 14.363281 -44.625 Z M 5.1875 -44.625 "/></g></g></g><g fill="#319795" fill-opacity="1"><g transform="translate(88.109892, 325.204138)"><g><path d="M 3.019531 -41.035156 C 3.019531 -38.015625 5.527344 -35.5625 8.492188 -35.5625 C 11.625 -35.5625 14.078125 -38.015625 14.078125 -41.035156 C 14.078125 -44.113281 11.625 -46.5625 8.492188 -46.5625 C 5.527344 -46.5625 3.019531 -44.113281 3.019531 -41.035156 Z M 4.101562 0 L 4.101562 -30.433594 L 13.050781 -30.433594 L 13.050781 0 Z M 4.101562 0 "/></g></g></g><g fill="#319795" fill-opacity="1"><g transform="translate(105.263383, 325.204138)"><g><path d="M 23.9375 -38.640625 L 23.9375 -45.9375 C 22.171875 -46.507812 20.746094 -46.5625 19.777344 -46.5625 C 10.828125 -46.5625 6.953125 -40.921875 6.953125 -33.453125 L 6.953125 -30.433594 L 1.480469 -30.433594 L 1.480469 -22.855469 L 6.953125 -22.855469 L 6.953125 0 L 15.84375 0 L 15.84375 -22.855469 L 23.765625 -22.855469 L 23.765625 -30.433594 L 15.785156 -30.433594 L 15.785156 -33.625 C 15.785156 -37.160156 17.839844 -38.984375 21.203125 -38.984375 C 21.484375 -38.984375 23.023438 -38.925781 23.9375 -38.640625 Z M 23.9375 -38.640625 "/></g></g></g><g fill="#319795" fill-opacity="1"><g transform="translate(129.996329, 325.204138)"><g><path d="M 11.285156 -12.765625 L 33.398438 -12.765625 C 33.511719 -13.792969 33.511719 -14.875 33.511719 -15.957031 C 33.511719 -24.960938 27.414062 -31.175781 18.351562 -31.175781 C 9.574219 -31.175781 2.222656 -24.050781 2.222656 -15.273438 C 2.222656 -5.8125 9.6875 0.683594 18.921875 0.683594 C 25.078125 0.683594 29.464844 -1.597656 32.03125 -6.210938 L 25.589844 -10.429688 C 24.222656 -8.148438 21.371094 -6.78125 18.808594 -6.78125 C 15.101562 -6.78125 11.855469 -8.949219 11.285156 -12.765625 Z M 24.621094 -18.636719 L 11.511719 -18.636719 C 11.855469 -20.632812 14.132812 -23.9375 18.125 -23.9375 C 22.570312 -23.9375 24.449219 -20.859375 24.621094 -18.636719 Z M 24.621094 -18.636719 "/></g></g></g><g fill="#319795" fill-opacity="1"><g transform="translate(165.728032, 325.204138)"><g/></g></g><g fill="#319795" fill-opacity="1"><g transform="translate(180.032104, 325.204138)"><g><path d="M 2.449219 -22.285156 C 2.449219 -9.289062 12.425781 0.625 25.417969 0.625 C 34.195312 0.625 42.914062 -4.21875 45.992188 -12.652344 L 37.5 -16.585938 C 35.5625 -11.742188 31.117188 -8.320312 25.53125 -8.320312 C 17.609375 -8.320312 12.027344 -14.648438 12.027344 -22.398438 C 12.027344 -30.035156 17.78125 -36.304688 25.53125 -36.304688 C 31.117188 -36.304688 35.507812 -33.167969 37.386719 -28.269531 L 45.820312 -32.144531 C 42.800781 -40.523438 34.367188 -45.308594 25.589844 -45.308594 C 12.824219 -45.308594 2.449219 -35.164062 2.449219 -22.285156 Z M 2.449219 -22.285156 "/></g></g></g><g fill="#319795" fill-opacity="1"><g transform="translate(227.446416, 325.204138)"><g><path d="M 12.652344 0.570312 C 15.957031 0.570312 19.492188 -0.570312 21.769531 -3.820312 L 21.886719 -3.761719 L 21.886719 0 L 30.09375 0 L 30.09375 -18.863281 C 30.09375 -27.070312 24.621094 -31.117188 16.871094 -31.117188 C 9.972656 -31.117188 5.355469 -28.382812 2.90625 -23.878906 L 9.6875 -19.832031 C 11.171875 -22.511719 13.277344 -23.9375 16.472656 -23.9375 C 19.832031 -23.9375 21.371094 -22.113281 21.371094 -20.175781 C 21.371094 -18.921875 20.632812 -17.953125 18.976562 -17.953125 L 15.957031 -17.953125 C 9.800781 -17.953125 2.394531 -16.128906 2.394531 -8.605469 L 2.394531 -8.492188 C 2.394531 -2.851562 7.179688 0.570312 12.652344 0.570312 Z M 15.21875 -5.925781 C 13.109375 -5.925781 11.339844 -6.839844 11.339844 -9.003906 C 11.339844 -11.398438 13.5625 -12.480469 15.957031 -12.480469 L 21.316406 -12.480469 L 21.316406 -11.796875 C 21.316406 -8.605469 19.148438 -5.925781 15.21875 -5.925781 Z M 15.21875 -5.925781 "/></g></g></g><g fill="#319795" fill-opacity="1"><g transform="translate(261.354502, 325.204138)"><g><path d="M 23.367188 -21.769531 L 23.367188 -30.546875 C 23.023438 -30.660156 22.226562 -30.777344 21.601562 -30.777344 C 17.324219 -30.777344 14.191406 -28.382812 12.996094 -25.761719 L 12.9375 -25.761719 L 12.9375 -30.433594 L 4.101562 -30.433594 L 4.101562 0 L 12.996094 0 L 12.996094 -12.878906 C 12.996094 -17.894531 15.160156 -21.941406 21.257812 -21.941406 C 22.054688 -21.941406 22.683594 -21.886719 23.367188 -21.769531 Z M 23.367188 -21.769531 "/></g></g></g><g fill="#319795" fill-opacity="1"><g transform="translate(285.574548, 325.204138)"><g><path d="M 11.285156 -12.765625 L 33.398438 -12.765625 C 33.511719 -13.792969 33.511719 -14.875 33.511719 -15.957031 C 33.511719 -24.960938 27.414062 -31.175781 18.351562 -31.175781 C 9.574219 -31.175781 2.222656 -24.050781 2.222656 -15.273438 C 2.222656 -5.8125 9.6875 0.683594 18.921875 0.683594 C 25.078125 0.683594 29.464844 -1.597656 32.03125 -6.210938 L 25.589844 -10.429688 C 24.222656 -8.148438 21.371094 -6.78125 18.808594 -6.78125 C 15.101562 -6.78125 11.855469 -8.949219 11.285156 -12.765625 Z M 24.621094 -18.636719 L 11.511719 -18.636719 C 11.855469 -20.632812 14.132812 -23.9375 18.125 -23.9375 C 22.570312 -23.9375 24.449219 -20.859375 24.621094 -18.636719 Z M 24.621094 -18.636719 "/></g></g></g></svg>