<svg xmlns="http://www.w3.org/2000/svg" xmlns:xlink="http://www.w3.org/1999/xlink" width="500" zoomAndPan="magnify" viewBox="0 0 375 374.999991" height="500" preserveAspectRatio="xMidYMid meet" version="1.0"><path fill="#319795" d="M 156.863281 313.097656 C 156.328125 307.453125 156.328125 298.890625 159.003906 290.925781 C 162.210938 281.714844 169.285156 273.746094 183.605469 272.855469 L 183.964844 272.855469 C 196.207031 272.679688 203.101562 268.578125 207.023438 262.929688 C 210.765625 257.28125 211.65625 249.792969 211.65625 243.253906 C 211.65625 241.472656 211.480469 239.6875 211.300781 237.964844 C 211.300781 236.003906 211.125 234.398438 210.945312 233.03125 L 210.765625 230.535156 C 210.589844 229.820312 210.589844 229.105469 210.589844 228.394531 C 210.410156 223.757812 212.191406 220.605469 214.867188 218.289062 C 217.363281 215.972656 220.871094 214.542969 224.257812 213 C 226.398438 212.105469 228.535156 211.214844 229.902344 210.144531 C 231.152344 209.253906 231.863281 208.183594 231.6875 207.113281 L 231.6875 206.402344 C 231.6875 206.222656 231.328125 205.6875 230.792969 204.796875 C 229.902344 203.726562 228.832031 202.476562 227.585938 200.871094 C 224.910156 197.664062 221.582031 193.800781 218.550781 188.628906 C 215.699219 183.515625 213.261719 177.097656 212.371094 169.128906 L 212.371094 168.832031 C 210.945312 159.796875 208.09375 151.476562 204.050781 143.867188 C 199.773438 135.902344 194.125 128.828125 187.410156 122.945312 C 180.695312 117.121094 172.851562 112.484375 164.351562 109.273438 C 156.210938 106.242188 147.355469 104.457031 138.144531 104.457031 C 136.359375 104.457031 134.578125 104.457031 133.210938 104.636719 C 123.644531 105.171875 114.429688 107.667969 105.933594 111.53125 C 97.433594 115.277344 89.648438 120.746094 83.050781 127.460938 C 76.335938 134.359375 70.808594 142.859375 66.949219 152.605469 C 63.382812 161.820312 61.480469 172.101562 61.480469 183.457031 L 61.480469 186.488281 L 61.65625 189.164062 C 65.222656 199.980469 69.441406 210.441406 74.078125 220.546875 C 78.894531 231.007812 84.183594 240.757812 89.648438 249.792969 C 94.582031 258.113281 99.753906 265.546875 105.042969 272.144531 C 110.152344 278.324219 115.5 283.851562 120.433594 288.074219 C 128.753906 294.789062 135.824219 300.316406 142.246094 304.539062 C 147.652344 308.34375 152.40625 311.136719 156.863281 313.097656 Z M 53.695312 160.691406 C 55.300781 153.972656 57.617188 147.554688 60.589844 141.550781 C 64.511719 133.585938 69.621094 126.511719 75.625 120.269531 C 83.050781 112.660156 91.730469 106.421875 101.476562 102.199219 C 111.042969 97.742188 121.503906 95.125 132.320312 94.414062 L 135.171875 94.234375 L 138.023438 94.234375 C 148.484375 94.234375 158.585938 96.195312 167.976562 99.523438 C 177.546875 103.269531 186.402344 108.558594 194.007812 115.277344 C 201.613281 121.816406 208.210938 130.019531 212.964844 139.054688 C 217.777344 147.730469 220.929688 157.480469 222.355469 167.761719 L 222.535156 167.941406 C 223.960938 180.722656 230.675781 188.6875 235.3125 194.15625 L 235.667969 194.511719 L 235.667969 194.691406 C 239.234375 198.792969 241.847656 201.941406 241.847656 206.042969 C 242.382812 210.976562 240.777344 214.367188 237.925781 216.863281 C 235.25 219.359375 231.746094 220.964844 228.179688 222.507812 C 226.21875 223.402344 224.078125 224.292969 222.710938 225.183594 C 221.464844 226.074219 220.75 226.96875 220.75 227.859375 C 220.75 228.929688 220.929688 230.355469 221.105469 231.960938 L 221.105469 232.316406 C 221.464844 235.347656 221.820312 239.210938 221.820312 243.3125 C 221.820312 251.992188 220.75 261.742188 215.460938 269.527344 C 210.171875 277.136719 200.722656 282.84375 184.261719 283.199219 C 167.621094 284.089844 166.371094 301.269531 166.90625 310.839844 C 167.085938 313.691406 167.441406 315.773438 167.621094 316.664062 C 174.335938 317.914062 180.21875 317.019531 186.222656 314.523438 C 192.582031 311.851562 199.535156 307.453125 207.855469 302.101562 L 211.421875 299.785156 L 214.273438 297.644531 C 225.089844 290.035156 241.371094 277.253906 258.074219 261.503906 C 270.671875 249.792969 283.210938 236.539062 294.207031 222.507812 C 307.875 205.152344 318.988281 186.726562 323.265625 169.128906 C 326.832031 154.566406 325.941406 140.597656 317.976562 128.355469 L 316.90625 126.75 C 290.519531 89.183594 267.640625 102.792969 248.148438 114.503906 C 238.578125 120.152344 229.546875 125.5 221.046875 126.035156 C 212.371094 126.75 204.050781 122.824219 196.445312 109.75 C 193.414062 104.457031 188.125 96.078125 181.230469 87.042969 C 174.15625 78.007812 165.125 68.4375 154.488281 60.828125 C 144.207031 53.398438 132.496094 47.691406 119.421875 46.445312 C 106.289062 45.015625 91.789062 47.871094 76.160156 57.261719 C 73.839844 58.6875 71.703125 60.472656 69.621094 62.195312 C 67.480469 63.980469 65.699219 65.941406 63.976562 67.84375 C 56.546875 77.054688 52.089844 88.765625 50.128906 102.257812 C 47.988281 117.121094 48.878906 134.179688 51.910156 151.714844 C 52.445312 154.210938 52.980469 156.648438 53.515625 159.144531 Z M 147.472656 179.472656 C 146.761719 180.542969 145.511719 181.433594 144.265625 181.792969 C 143.015625 181.96875 141.589844 181.792969 140.34375 181.078125 C 139.09375 180.363281 138.382812 179.117188 138.023438 177.867188 C 137.667969 176.621094 137.847656 175.195312 138.558594 173.945312 L 138.917969 173.410156 C 139.273438 172.875 139.453125 172.339844 139.453125 171.628906 C 139.628906 171.09375 139.628906 170.378906 139.453125 169.84375 C 139.273438 169.308594 139.09375 168.773438 138.738281 168.238281 C 138.382812 167.882812 138.023438 167.527344 137.488281 167.167969 L 137.132812 166.992188 C 136.597656 166.632812 135.886719 166.457031 135.171875 166.457031 C 134.460938 166.277344 133.566406 166.457031 132.855469 166.632812 C 132.140625 166.8125 131.25 167.167969 130.714844 167.703125 C 130 168.238281 129.46875 168.773438 128.933594 169.488281 L 128.398438 170.558594 C 127.507812 172.339844 126.792969 174.300781 126.613281 176.027344 C 126.257812 177.988281 126.4375 179.769531 126.792969 181.496094 C 127.328125 183.277344 128.039062 184.882812 129.109375 186.429688 C 130.179688 187.855469 131.429688 189.101562 133.03125 189.996094 L 133.925781 190.53125 C 135.707031 191.601562 137.847656 192.132812 139.75 192.3125 C 142.066406 192.492188 144.207031 192.3125 146.285156 191.601562 C 148.425781 191.066406 150.566406 189.996094 152.289062 188.566406 C 154.070312 187.320312 155.675781 185.535156 156.921875 183.632812 L 157.992188 181.851562 C 159.597656 179 160.488281 175.847656 161.023438 172.816406 C 161.378906 169.605469 161.203125 166.457031 160.488281 163.601562 C 159.777344 160.570312 158.527344 157.957031 156.746094 155.460938 C 154.960938 152.960938 152.824219 151 150.207031 149.277344 L 148.78125 148.5625 C 145.574219 146.78125 142.246094 145.890625 138.855469 145.53125 C 135.113281 145.175781 131.605469 145.53125 128.039062 146.601562 C 124.476562 147.671875 121.148438 149.277344 118.117188 151.535156 C 115.261719 153.855469 112.648438 156.46875 110.6875 159.679688 L 109.972656 160.929688 L 109.261719 162.175781 C 107.121094 166.277344 105.695312 170.496094 104.980469 174.777344 C 104.449219 179.234375 104.625 183.632812 105.695312 187.914062 C 106.765625 192.015625 108.546875 195.878906 110.984375 199.269531 C 113.300781 202.65625 116.453125 205.628906 120.195312 207.945312 L 122.335938 209.015625 C 126.613281 211.511719 131.367188 212.761719 136.183594 213.296875 C 141.117188 213.652344 146.285156 213.117188 151.039062 211.691406 C 155.972656 210.265625 160.609375 207.945312 164.886719 204.796875 C 168.988281 201.765625 172.492188 198.078125 175.167969 193.441406 C 175.882812 192.371094 176.59375 191.300781 177.128906 190.410156 C 179.980469 185.121094 181.765625 179.59375 182.417969 174.125 C 183.132812 168.476562 182.953125 162.769531 181.527344 157.480469 C 180.28125 152.191406 177.960938 147.019531 174.8125 142.621094 C 171.601562 138.339844 167.738281 134.65625 162.925781 131.625 L 161.5 130.730469 L 160.25 130.019531 C 154.425781 126.988281 148.1875 125.203125 141.648438 124.550781 C 135.113281 124.015625 128.339844 124.726562 121.800781 126.511719 C 115.621094 128.472656 109.558594 131.324219 104.449219 135.367188 C 99.632812 139.292969 95.59375 144.046875 92.382812 149.753906 C 90.957031 152.605469 89.707031 155.222656 88.640625 157.894531 C 87.390625 160.75 86.5 163.363281 85.785156 166.039062 C 84.183594 172.042969 83.648438 177.929688 83.824219 183.398438 C 84.003906 188.867188 85.25 194.214844 87.210938 198.96875 C 89.351562 203.902344 92.144531 208.363281 95.890625 212.464844 C 99.632812 216.386719 104.210938 219.894531 109.558594 222.746094 C 111.875 223.996094 114.371094 225.242188 116.988281 226.136719 C 119.484375 227.207031 122.097656 228.097656 124.949219 228.808594 C 126.199219 229.167969 127.089844 229.878906 127.804688 230.59375 C 128.515625 231.484375 128.871094 232.734375 128.871094 233.804688 L 129.40625 246.40625 C 144.144531 240.757812 175.464844 222.09375 181.347656 209.730469 C 181.882812 208.480469 182.953125 207.589844 184.203125 207.054688 C 185.449219 206.699219 186.875 206.699219 188.300781 207.410156 C 189.550781 207.945312 190.441406 209.015625 190.976562 210.265625 C 191.332031 211.511719 191.332031 212.9375 190.796875 214.1875 C 182.65625 231.367188 145.808594 251.753906 126.496094 258.472656 C 126.140625 258.472656 125.960938 258.648438 125.78125 258.648438 C 125.425781 258.648438 125.246094 258.828125 124.890625 258.828125 C 123.464844 258.828125 122.214844 258.292969 121.148438 257.402344 C 120.253906 256.511719 119.542969 255.261719 119.542969 253.835938 L 118.828125 237.726562 C 116.511719 237.011719 114.195312 236.300781 111.933594 235.40625 C 109.4375 234.339844 107.003906 233.089844 104.863281 232.019531 C 98.503906 228.453125 92.976562 224.234375 88.402344 219.417969 C 83.945312 214.601562 80.257812 208.957031 77.761719 202.953125 C 75.265625 197.128906 74.019531 190.707031 73.664062 183.992188 C 73.304688 177.453125 74.019531 170.496094 75.980469 163.601562 C 76.871094 160.394531 77.761719 157.421875 79.191406 154.210938 C 80.4375 151.179688 81.863281 148.027344 83.46875 144.996094 C 87.210938 137.925781 92.324219 132.039062 98.207031 127.460938 C 104.386719 122.527344 111.519531 118.960938 119.125 116.644531 C 126.734375 114.503906 134.875 113.613281 142.898438 114.503906 C 150.683594 115.21875 158.289062 117.355469 165.242188 121.042969 L 167.027344 121.933594 L 168.453125 122.824219 C 174.457031 126.570312 179.449219 131.324219 183.308594 136.675781 C 187.410156 142.144531 190.203125 148.5625 191.808594 155.101562 C 193.414062 161.640625 193.769531 168.597656 192.699219 175.492188 C 191.808594 182.207031 189.667969 188.984375 186.339844 195.34375 L 185.269531 197.304688 L 184.203125 199.089844 C 180.636719 204.558594 176.238281 209.371094 171.246094 213.117188 C 166.136719 217.039062 160.25 220.011719 154.070312 221.796875 C 148.070312 223.578125 141.648438 224.292969 135.292969 223.578125 C 129.289062 223.042969 123.226562 221.261719 117.582031 218.46875 L 116.15625 217.574219 L 114.90625 216.863281 C 110.09375 213.832031 106.050781 209.96875 102.84375 205.507812 C 99.457031 201.050781 97.195312 195.9375 95.949219 190.46875 C 94.523438 185.179688 94.164062 179.472656 95.058594 173.828125 C 95.769531 168.359375 97.554688 162.828125 100.347656 157.539062 L 101.238281 155.933594 L 101.953125 154.507812 C 104.804688 150.226562 108.132812 146.542969 112.054688 143.691406 C 115.976562 140.660156 120.550781 138.398438 125.367188 136.972656 C 130.179688 135.546875 135.113281 135.191406 139.925781 135.546875 C 144.742188 136.082031 149.316406 137.328125 153.773438 139.648438 C 154.488281 140.183594 155.199219 140.539062 155.914062 140.894531 C 159.65625 143.214844 162.808594 146.1875 165.304688 149.753906 C 167.800781 153.320312 169.761719 157.183594 170.59375 161.460938 C 171.660156 165.742188 172.019531 170.140625 171.304688 174.421875 C 170.769531 178.699219 169.34375 183.097656 167.203125 187.199219 L 166.492188 188.449219 L 165.777344 189.519531 C 163.996094 192.550781 161.5 195.167969 158.882812 197.128906 C 155.855469 199.269531 152.703125 200.871094 149.316406 201.941406 C 145.929688 203.011719 142.421875 203.367188 139.035156 203.011719 C 135.648438 202.65625 132.320312 201.765625 129.109375 199.980469 L 128.398438 199.625 L 127.683594 199.089844 C 125.011719 197.484375 122.75 195.34375 120.96875 192.90625 C 119.007812 190.234375 117.757812 187.4375 117.046875 184.40625 C 116.332031 181.375 116.15625 178.226562 116.511719 175.195312 C 116.867188 172.164062 117.9375 169.011719 119.542969 166.160156 C 119.542969 165.980469 120.253906 164.730469 120.433594 164.554688 C 121.503906 162.59375 122.929688 161.164062 124.710938 159.917969 C 126.316406 158.667969 128.277344 157.597656 130.179688 157.0625 C 132.140625 156.527344 134.28125 156.351562 136.359375 156.527344 C 138.320312 156.707031 140.285156 157.242188 142.183594 158.3125 C 142.363281 158.3125 142.71875 158.667969 143.078125 158.847656 C 144.679688 159.738281 146.105469 161.164062 147.175781 162.59375 C 148.246094 164.195312 149.136719 165.980469 149.496094 167.703125 C 150.03125 169.488281 150.03125 171.449219 149.851562 173.351562 C 149.671875 175.132812 148.960938 176.917969 148.070312 178.640625 C 148.007812 178.582031 147.652344 179.117188 147.472656 179.472656 Z M 51.613281 192.074219 L 51.4375 191.71875 C 49.296875 185.359375 47.515625 178.9375 45.789062 172.398438 C 44.1875 166.039062 42.757812 159.796875 41.691406 153.617188 C 38.300781 134.832031 37.410156 116.40625 39.90625 100.058594 C 42.226562 85.199219 47.335938 71.882812 55.832031 61.601562 C 57.972656 58.925781 60.292969 56.667969 62.726562 54.527344 C 65.222656 52.210938 67.839844 50.246094 70.691406 48.703125 C 88.640625 37.644531 105.101562 34.496094 120.195312 36.042969 C 135.292969 37.585938 148.902344 44.007812 160.429688 52.507812 C 171.960938 60.828125 181.527344 70.933594 189.132812 80.503906 C 196.5625 90.074219 202.089844 98.929688 205.417969 104.457031 C 210.351562 113.136719 216.054688 115.8125 222.058594 115.097656 C 228.238281 114.207031 235.371094 110.164062 242.800781 105.707031 C 254.328125 98.8125 266.925781 91.320312 280.714844 91.144531 C 294.503906 90.964844 309.417969 98.21875 325.347656 120.921875 L 326.59375 122.707031 C 335.984375 137.269531 337.410156 153.558594 333.667969 170.199219 C 329.03125 189.699219 317.203125 209.90625 302.289062 228.871094 C 290.9375 243.253906 277.980469 256.867188 265.085938 268.933594 C 247.910156 285.21875 231.210938 298.355469 220.097656 306.144531 L 217.246094 308.105469 L 213.320312 310.78125 C 179.449219 332.773438 167.621094 340.382812 113.71875 295.917969 C 108.25 291.460938 102.546875 285.636719 97.078125 278.742188 C 91.433594 271.847656 85.90625 263.878906 80.617188 255.144531 C 74.96875 245.929688 69.441406 235.644531 64.511719 224.828125 C 59.757812 214.1875 55.300781 203.191406 51.613281 192.074219 Z M 51.613281 192.074219 " fill-opacity="1" fill-rule="nonzero"/></svg>